<?xml version="1.0" encoding="UTF-8"?>
<svg width="34px" height="45px" viewBox="0 0 34 45" version="1.1" xmlns="http://www.w3.org/2000/svg" xmlns:xlink="http://www.w3.org/1999/xlink">
    <!-- Generator: Sketch 51.3 (57544) - http://www.bohemiancoding.com/sketch -->
    <title>Group 69</title>
    <desc>Created with Sketch.</desc>
    <defs></defs>
    <g id="Page-1" stroke="none" stroke-width="1" fill="none" fill-rule="evenodd">
        <g id="Group-69">
            <polygon id="Fill-45" fill="#A62955" points="23.3119 37.481 24.1029 42.889 22.0169 42.068 20.4239 37.481"></polygon>
            <polygon id="Fill-46" fill="#9A1E29" points="21.8724 8.3072 22.4624 8.1612 17.9174 22.6722 16.9314 24.0572 16.9314 22.3422"></polygon>
            <polygon id="Fill-47" fill="#B62153" points="24.4335 6.3761 22.9595 0.0001 20.7255 2.0761 17.9465 2.8411 22.1385 9.1971"></polygon>
            <polygon id="Fill-48" fill="#9A1E29" points="15.2733 25.461 6.0793 25.397 5.1313 25.901"></polygon>
            <polygon id="Fill-49" fill="#E33F57" points="16.7782 25.3961 5.1312 25.9011 16.9452 33.6611"></polygon>
            <polygon id="Fill-50" fill="#D23C6B" points="29.6029 26.9723 17.9179 22.6733 22.9399 6.6333 24.4339 6.3763"></polygon>
            <polygon id="Fill-51" fill="#B62153" points="16.932 22.3419 8.515 15.7169 15.473 28.0279 16.932 28.1379"></polygon>
            <polygon id="Fill-52" fill="#EE6794" points="9.9286 28.2804 2.2026 15.5914 8.5156 15.7174 15.4726 28.0274"></polygon>
            <polygon id="Fill-53" fill="#9A1E29" points="2.203 15.5914 0.909 22.9144 5.048 20.2644"></polygon>
            <polygon id="Fill-54" fill="#B62153" points="27.7391 44.234 23.3121 44.234 16.9171 42.676 18.9841 40.872 22.4271 41.456"></polygon>
            <polygon id="Fill-55" fill="#DA336D" points="24.4335 6.3761 28.2065 4.1671 28.6215 1.0121 25.4205 1.6161 22.9395 0.0001"></polygon>
            <polygon id="Fill-56" fill="#9B2219" points="28.2064 4.1661 26.5784 12.1571 24.4344 6.3761"></polygon>
            <polygon id="Fill-57" fill="#9B2219" points="27.8168 6.0592 30.9438 7.9082 27.3948 8.0492"></polygon>
            <polygon id="Fill-58" fill="#811C0E" points="30.9769 7.9073 26.9759 10.2133 27.4429 7.9073"></polygon>
            <polygon id="Fill-59" fill="#891F1E" points="16.9476 27.6969 5.3296 28.2019 16.9466 37.4819"></polygon>
            <polygon id="Fill-60" fill="#B35E7E" points="24.4335 6.3761 29.9285 17.7731 33.2335 29.2961 28.2065 34.9211 29.7975 28.0271"></polygon>
            <polygon id="Fill-61" fill="#B62153" points="16.9164 23.1734 16.9754 27.6964 15.2864 27.6964 13.7254 24.9334"></polygon>
            <polygon id="Fill-62" fill="#E6406E" points="24.4335 37.481 16.9315 37.481 16.9315 23.173 17.9165 22.673 28.2065 34.92"></polygon>
            <polygon id="Fill-63" fill="#B62153" points="32.4769 28.0274 28.2059 34.9214 17.9169 22.6734"></polygon>
            <polygon id="Fill-64" fill="#9A1E29" points="16.932 27.6969 6.279 27.6969 5.329 28.2019"></polygon>
            <path d="M25.7616,7.0758 C25.7616,7.4138 26.0336,7.6878 26.3696,7.6878 C26.7026,7.6878 26.9716,7.4138 26.9716,7.0758 C26.9716,6.7378 26.7026,6.4638 26.3696,6.4638 C26.0336,6.4638 25.7616,6.7378 25.7616,7.0758" id="Fill-65" fill="#FFFFFE"></path>
            <polygon id="Fill-66" fill="#E33F57" points="18.0902 37.4615 19.2252 41.7635 20.4242 42.5525 23.3122 44.2375 21.1722 37.4615"></polygon>
            <polygon id="Fill-67" fill="#E33F57" points="23.5043 44.234 19.2253 41.763 17.5353 44.234"></polygon>
            <polygon id="Fill-68" fill="#9A1E29" points="23.3119 37.481 21.1729 37.481 21.6179 38.887"></polygon>
        </g>
    </g>
</svg>