<?xml version="1.0" encoding="UTF-8"?>
<svg width="480px" height="159px" viewBox="0 0 480 159" version="1.1" xmlns="http://www.w3.org/2000/svg" xmlns:xlink="http://www.w3.org/1999/xlink">
    <!-- Generator: Sketch 51.3 (57544) - http://www.bohemiancoding.com/sketch -->
    <title>Page 1</title>
    <desc>Created with Sketch.</desc>
    <defs></defs>
    <g id="Page-1" stroke="none" stroke-width="1" fill="none" fill-rule="evenodd">
        <g id="Accueil-French-Tech-Bordeaux" transform="translate(0.000000, -754.000000)">
            <g id="Page-1" transform="translate(0.000000, 755.000000)">
                <polygon id="Fill-1" fill="#A9153E" opacity="0.25" points="150.659812 0.394921 129.780564 47.531851 31.5987461 58.591851"></polygon>
                <polygon id="Stroke-3" stroke="#FFFFFF" opacity="0.25" stroke-linecap="round" stroke-linejoin="round" points="479.623824 0.394921 394.60815 50.954921 408.15047 0.394921"></polygon>
                <polygon id="Stroke-6" stroke="#FFFFFF" opacity="0.25" stroke-linecap="round" stroke-linejoin="round" points="394.60815 50.954921 364.514107 0.394921 408.15047 0.394921"></polygon>
                <polygon id="Stroke-9" stroke="#FFFFFF" opacity="0.25" stroke-linecap="round" stroke-linejoin="round" points="31.5987461 58.591456 0.376175549 157.654296 0.376175549 0.394526"></polygon>
                <polygon id="Fill-11" fill="#9E0F37" opacity="0.25" points="129.780564 47.531456 160.968527 81.456426 150.659812 0.394526"></polygon>
                <polygon id="Fill-12" fill="#C42651" opacity="0.25" points="31.5987461 58.591456 160.968527 81.456426 129.780564 47.531456"></polygon>
                <polygon id="Fill-13" fill="#B82251" opacity="0.25" points="0.376476489 157.653664 55.9330909 123.002684 31.599047 58.591614"></polygon>
                <polygon id="Fill-14" fill="#B31F4D" opacity="0.25" points="31.5987461 58.591456 111.894922 135.140086 55.9335423 123.002526"></polygon>
                <polygon id="Fill-15" fill="#A31642" opacity="0.25" points="0.376476489 157.653664 111.89447 135.139454 55.9330909 123.002684"></polygon>
                <polygon id="Fill-16" fill="#BC244D" opacity="0.25" points="31.5987461 58.591456 88.150721 86.504526 160.968527 81.456426"></polygon>
                <polygon id="Fill-17" fill="#BA2350" opacity="0.25" points="88.150721 86.504921 111.894922 135.139691 31.5987461 58.591851"></polygon>
                <polygon id="Fill-18" fill="#A9153E" opacity="0.25" points="160.968602 81.456742 111.894245 135.140402 88.1507962 86.504842"></polygon>
                <polygon id="Fill-25" fill="#C22450" opacity="0.25" points="202.00627 33.574921 176.333041 40.925871 150.659812 0.394921"></polygon>
                <polygon id="Fill-26" fill="#BB244E" opacity="0.25" points="150.659812 0.394921 176.333041 40.925871 160.968527 81.456821"></polygon>
                <polygon id="Fill-27" fill="#A9153E" opacity="0.25" points="160.968602 81.456742 202.006345 33.574842 176.333116 40.925792"></polygon>
                <polygon id="Stroke-29" stroke="#FFFFFF" opacity="0.25" stroke-linecap="round" stroke-linejoin="round" points="31.5987461 58.591456 80.62721 0.394526 150.659812 0.394526"></polygon>
                <polygon id="Stroke-32" stroke="#FFFFFF" opacity="0.25" stroke-linecap="round" stroke-linejoin="round" points="31.5987461 58.591456 0.376175549 0.394526 80.62721 0.394526"></polygon>
                <polygon id="Stroke-35" stroke="#FFFFFF" opacity="0.25" stroke-linecap="round" stroke-linejoin="round" points="202.00627 33.574921 319.133041 0.394921 208.777429 0.394921"></polygon>
                <polygon id="Fill-37" fill="#C8214B" opacity="0.25" points="319.132815 0.394921 263.251937 57.515871 202.006044 33.574921"></polygon>
                <polygon id="Fill-38" fill="#A31642" opacity="0.25" points="319.132815 0.394921 284.377204 99.934921 263.251937 57.515871"></polygon>
                <polygon id="Fill-39" fill="#BF264B" opacity="0.25" points="202.00627 33.574921 284.376677 99.934921 263.251411 57.515871"></polygon>
                <polygon id="Fill-40" fill="#C42651" opacity="0.25" points="202.00627 33.574921 199.749216 74.917991 160.968527 81.456821"></polygon>
                <polygon id="Fill-41" fill="#B31E46" opacity="0.25" points="202.00627 33.574921 284.376677 99.934921 199.749216 74.917991"></polygon>
                <polygon id="Fill-42" fill="#A31642" opacity="0.25" points="160.968602 81.456742 284.376752 99.934842 199.749292 74.918702"></polygon>
                <polygon id="Fill-43" fill="#BF264A" opacity="0.25" points="327.18237 47.794921 284.376602 99.934921 319.132966 0.394921"></polygon>
                <polygon id="Fill-44" fill="#B21A3C" opacity="0.25" points="394.60815 50.954921 284.376677 99.934921 327.182445 47.794921"></polygon>
                <polygon id="Fill-45" fill="#A31642" opacity="0.25" points="319.132815 0.394921 394.607925 50.954921 327.182219 47.794921"></polygon>
                <g id="Group">
                    <polygon id="Fill-2" fill="#FFFFFF" points="408.150621 0.394684 394.608301 50.954684 479.623975 0.394684"></polygon>
                    <polygon id="Fill-5" fill="#FFFFFF" points="394.60815 50.954921 364.514107 0.394921 408.15047 0.394921"></polygon>
                    <polygon id="Fill-22" fill="#FFFFFF" points="202.00627 33.574921 208.777429 0.394921 190.721003 0.394921"></polygon>
                    <polygon id="Fill-8" fill="#FFFFFF" points="0.376476489 157.653664 31.599047 58.591614 0.376476489 0.394684"></polygon>
                    <polygon id="Stroke-20" stroke="#FFFFFF" stroke-linecap="round" stroke-linejoin="round" points="150.659812 0.394921 202.00627 33.574921 190.721003 0.394921"></polygon>
                    <polygon id="Stroke-23" stroke="#FFFFFF" stroke-linecap="round" stroke-linejoin="round" points="202.00627 33.574921 208.777429 0.394921 190.721003 0.394921"></polygon>
                    <polygon id="Fill-28" fill="#FFFFFF" points="31.5987461 58.591456 80.62721 0.394526 150.659812 0.394526"></polygon>
                    <polygon id="Fill-31" fill="#FFFFFF" points="0.376476489 0.394684 31.599047 58.591614 80.6267586 0.394684"></polygon>
                    <polygon id="Fill-34" fill="#FFFFFF" points="202.00627 33.574921 319.133041 0.394921 208.777429 0.394921"></polygon>
                    <polygon id="Fill-46" fill="#FFFFFF" points="394.60815 50.954921 364.514107 0.394921 319.133041 0.394921"></polygon>
                    <polygon id="Fill-19" fill="#FFFFFF" points="150.659812 0.394921 202.00627 33.574921 190.721003 0.394921"></polygon>
                    <polygon id="Stroke-47" stroke="#FFFFFF" stroke-linecap="round" stroke-linejoin="round" points="394.60815 50.954921 364.514107 0.394921 319.133041 0.394921"></polygon>
                </g>
            </g>
        </g>
    </g>
</svg>